<svg width="32" height="32" viewBox="0 0 32 32" fill="none" xmlns="http://www.w3.org/2000/svg">
  <!-- Fondo con gradiente azul profundo -->
  <defs>
    <linearGradient id="bgGradient" x1="0%" y1="0%" x2="100%" y2="100%">
      <stop offset="0%" style="stop-color:#023047;stop-opacity:1" />
      <stop offset="100%" style="stop-color:#0d3d56;stop-opacity:1" />
    </linearGradient>
    <linearGradient id="accentGradient" x1="0%" y1="0%" x2="100%" y2="100%">
      <stop offset="0%" style="stop-color:#4CAF50;stop-opacity:1" />
      <stop offset="100%" style="stop-color:#66BB6A;stop-opacity:1" />
    </linearGradient>
  </defs>
  
  <!-- Fondo principal -->
  <rect width="32" height="32" rx="8" fill="url(#bgGradient)"/>
  
  <!-- Estetoscopio estilizado -->
  <path d="M8 12 C8 8, 12 6, 16 8 C20 6, 24 8, 24 12 C24 16, 20 18, 16 16 C12 18, 8 16, 8 12 Z" 
        fill="url(#accentGradient)" stroke="#4CAF50" stroke-width="1"/>
  
  <!-- Tubos del estetoscopio -->
  <path d="M16 16 L16 20 L12 24" stroke="#4CAF50" stroke-width="2" stroke-linecap="round"/>
  <path d="M16 16 L16 20 L20 24" stroke="#4CAF50" stroke-width="2" stroke-linecap="round"/>
  
  <!-- Auriculares -->
  <circle cx="12" cy="24" r="3" fill="#FFB703"/>
  <circle cx="20" cy="24" r="3" fill="#FFB703"/>
  
  <!-- Elementos decorativos -->
  <circle cx="6" cy="6" r="1.5" fill="#FFB703"/>
  <circle cx="26" cy="6" r="1.5" fill="#FFB703"/>
  <circle cx="6" cy="26" r="1.5" fill="#FFB703"/>
  <circle cx="26" cy="26" r="1.5" fill="#FFB703"/>
  
  <!-- Líneas de conexión -->
  <line x1="4" y1="16" x2="8" y2="16" stroke="#EAEAEA" stroke-width="1" stroke-linecap="round"/>
  <line x1="24" y1="16" x2="28" y2="16" stroke="#EAEAEA" stroke-width="1" stroke-linecap="round"/>
</svg>
